<?xml version="1.0" encoding="UTF-8"?>
<!DOCTYPE svg PUBLIC "-//W3C//DTD SVG 1.1//EN" "http://www.w3.org/Graphics/SVG/1.1/DTD/svg11.dtd">
<svg xmlns="http://www.w3.org/2000/svg" version="1.1" width="128px" height="128px" style="shape-rendering:geometricPrecision; text-rendering:geometricPrecision; image-rendering:optimizeQuality; fill-rule:evenodd; clip-rule:evenodd" xmlns:xlink="http://www.w3.org/1999/xlink">
<g><path style="opacity:1" fill="#2d2d2c" d="M 70.5,6.5 C 73.5618,9.11878 77.0618,11.1188 81,12.5C 88.9796,21.7925 94.313,32.4592 97,44.5C 97.7697,43.4019 98.603,43.4019 99.5,44.5C 99.6495,45.552 99.4828,46.552 99,47.5C 98.3457,46.3044 97.8457,46.3044 97.5,47.5C 97.6236,48.1067 97.9569,48.44 98.5,48.5C 99.359,54.7411 101.026,60.7411 103.5,66.5C 104.541,70.3615 105.541,70.3615 106.5,66.5C 105.908,69.6305 106.908,71.9639 109.5,73.5C 107.668,73.1661 105.668,73.1661 103.5,73.5C 100.766,70.2439 98.5997,66.5772 97,62.5C 96.6773,67.8657 96.1773,73.1991 95.5,78.5C 94.7095,79.4013 93.7095,80.0679 92.5,80.5C 92.5,79.5 92.5,78.5 92.5,77.5C 93.2216,77.0825 93.7216,76.4158 94,75.5C 94.929,68.5822 94.429,61.9155 92.5,55.5C 92.6633,53.1432 92.4966,50.8098 92,48.5C 91.6232,47.0577 90.7899,46.0577 89.5,45.5C 88.8826,45.3893 88.3826,45.056 88,44.5C 87.6112,39.9438 86.4445,35.6105 84.5,31.5C 82.0727,28.7097 80.0727,28.8763 78.5,32C 81.055,36.0683 81.7217,40.2349 80.5,44.5C 79.5675,38.3682 77.5675,32.3682 74.5,26.5C 70.6792,17.6 64.0126,13.2666 54.5,13.5C 53.479,12.9984 53.3123,12.3317 54,11.5C 55.2051,10.9288 56.3717,10.2621 57.5,9.5C 57.3764,8.89333 57.0431,8.55999 56.5,8.5C 56.6107,7.88258 56.944,7.38258 57.5,7C 61.8206,6.50098 66.1539,6.33432 70.5,6.5 Z"/></g>
<g><path style="opacity:1" fill="#515353" d="M 70.5,6.5 C 66.1539,6.33432 61.8206,6.50098 57.5,7C 56.944,7.38258 56.6107,7.88258 56.5,8.5C 52.8815,9.24362 49.2148,9.57695 45.5,9.5C 53.4898,5.56361 61.8232,4.56361 70.5,6.5 Z"/></g>
<g><path style="opacity:1" fill="#292928" d="M 56.5,8.5 C 57.0431,8.55999 57.3764,8.89333 57.5,9.5C 56.3717,10.2621 55.2051,10.9288 54,11.5C 53.3123,12.3317 53.479,12.9984 54.5,13.5C 64.0126,13.2666 70.6792,17.6 74.5,26.5C 72.8523,25.1902 71.1856,23.8569 69.5,22.5C 69.1667,22.6667 68.8333,22.8333 68.5,23C 70.0074,23.8373 70.5074,25.0039 70,26.5C 68.5341,24.6751 66.7008,24.1751 64.5,25C 65.4506,25.7175 65.6172,26.5509 65,27.5C 63.3296,27.6563 61.663,26.9896 60,25.5C 56.3969,27.1883 52.5636,28.1883 48.5,28.5C 48.8426,33.0411 48.8426,37.3744 48.5,41.5C 48.6309,40.6236 48.2975,39.9569 47.5,39.5C 46.1876,44.3181 46.1876,48.9848 47.5,53.5C 48.9516,54.3019 50.6183,54.8019 52.5,55C 53.3366,56.0113 53.67,57.1779 53.5,58.5C 53.1667,58.5 52.8333,58.5 52.5,58.5C 52.2893,56.5759 51.6226,56.2426 50.5,57.5C 48.8958,58.287 48.2291,59.6203 48.5,61.5C 46.3958,57.3807 44.8958,57.714 44,62.5C 43.6667,62.1667 43.3333,61.8333 43,61.5C 42.253,63.9278 43.0863,65.5944 45.5,66.5C 45.5,66.8333 45.5,67.1667 45.5,67.5C 45.5,68.5 45.5,69.5 45.5,70.5C 43.5,69.5 41.5,68.5 39.5,67.5C 37.2384,65.3152 35.7384,62.6485 35,59.5C 34.5099,61.5454 34.6765,63.5454 35.5,65.5C 34.5,64.8333 33.5,64.1667 32.5,63.5C 32.6107,62.8826 32.944,62.3826 33.5,62C 31.6425,58.4096 30.4758,54.5763 30,50.5C 29.2419,52.7695 29.4086,54.9361 30.5,57C 29.7471,58.487 28.9138,58.6537 28,57.5C 27.7679,58.7375 27.2679,59.7375 26.5,60.5C 26.5,57.8333 26.5,55.1667 26.5,52.5C 26.5,51.8333 26.5,51.1667 26.5,50.5C 27.6291,48.3718 27.7958,46.0385 27,43.5C 26.5299,46.0723 25.6966,47.739 24.5,48.5C 25.3739,45.2107 26.0405,41.8774 26.5,38.5C 29.2239,33.2076 32.0572,27.8743 35,22.5C 38.7365,18.2733 42.2365,13.94 45.5,9.5C 49.2148,9.57695 52.8815,9.24362 56.5,8.5 Z"/></g>
<g><path style="opacity:1" fill="#636566" d="M 70.5,6.5 C 82.2839,10.1115 90.4506,17.7781 95,29.5C 96.4053,34.5476 97.9053,39.5476 99.5,44.5C 98.603,43.4019 97.7697,43.4019 97,44.5C 94.313,32.4592 88.9796,21.7925 81,12.5C 77.0618,11.1188 73.5618,9.11878 70.5,6.5 Z"/></g>
<g><path style="opacity:1" fill="#636565" d="M 45.5,9.5 C 42.2365,13.94 38.7365,18.2733 35,22.5C 32.0572,27.8743 29.2239,33.2076 26.5,38.5C 28.2292,27.5411 33.2292,18.3744 41.5,11C 42.745,10.2086 44.0783,9.70858 45.5,9.5 Z"/></g>
<g><path style="opacity:1" fill="#302e2c" d="M 74.5,26.5 C 77.5675,32.3682 79.5675,38.3682 80.5,44.5C 79.9033,44.7352 79.5699,45.2352 79.5,46C 81.6622,48.1035 81.8289,50.2701 80,52.5C 79.6667,51.5 79.3333,50.5 79,49.5C 78.79,51.0581 78.29,52.3915 77.5,53.5C 76.5343,50.8753 75.5343,50.8753 74.5,53.5C 72.2619,50.5673 71.2619,50.9007 71.5,54.5C 70.4415,53.3998 69.6082,52.0664 69,50.5C 68.6012,50.7284 68.4346,51.0618 68.5,51.5C 67.056,47.8517 64.8894,44.5184 62,41.5C 61.9182,44.0838 62.7515,46.4172 64.5,48.5C 63.5,48.5 62.5,48.5 61.5,48.5C 61.9424,49.7387 62.6091,50.7387 63.5,51.5C 61.9504,52.7199 60.2837,52.7199 58.5,51.5C 56.6017,49.7306 54.7684,48.0639 53,46.5C 52.4014,48.5348 52.9014,50.2015 54.5,51.5C 54.44,52.0431 54.1067,52.3764 53.5,52.5C 52.265,51.6602 51.265,50.6602 50.5,49.5C 50.6716,48.5084 50.3382,47.8417 49.5,47.5C 49.1667,45.5 48.8333,43.5 48.5,41.5C 48.8426,37.3744 48.8426,33.0411 48.5,28.5C 52.5636,28.1883 56.3969,27.1883 60,25.5C 61.663,26.9896 63.3296,27.6563 65,27.5C 65.6172,26.5509 65.4506,25.7175 64.5,25C 66.7008,24.1751 68.5341,24.6751 70,26.5C 70.5074,25.0039 70.0074,23.8373 68.5,23C 68.8333,22.8333 69.1667,22.6667 69.5,22.5C 71.1856,23.8569 72.8523,25.1902 74.5,26.5 Z"/></g>
<g><path style="opacity:1" fill="#30302f" d="M 89.5,45.5 C 89.5,50.5 89.5,55.5 89.5,60.5C 89.2175,65.9265 89.5509,71.2599 90.5,76.5C 89.1667,79.5 89.1667,82.5 90.5,85.5C 89.9697,92.6612 87.6363,99.1612 83.5,105C 82.184,105.528 81.5173,105.028 81.5,103.5C 81.5,102.5 81.5,101.5 81.5,100.5C 83.7857,94.0626 84.7857,87.396 84.5,80.5C 84.1667,79.8333 83.8333,79.1667 83.5,78.5C 83.5,75.8333 83.5,73.1667 83.5,70.5C 83.5,67.1667 83.5,63.8333 83.5,60.5C 83.9474,54.7939 82.9474,49.4606 80.5,44.5C 81.7217,40.2349 81.055,36.0683 78.5,32C 80.0727,28.8763 82.0727,28.7097 84.5,31.5C 86.4445,35.6105 87.6112,39.9438 88,44.5C 88.3826,45.056 88.8826,45.3893 89.5,45.5 Z"/></g>
<g><path style="opacity:1" fill="#807361" d="M 75.5,41.5 C 74.8333,41.5 74.5,41.8333 74.5,42.5C 69.1831,35.3266 69.5164,34.9932 75.5,41.5 Z"/></g>
<g><path style="opacity:1" fill="#d8c4ad" d="M 63.5,35.5 C 65.0331,37.3548 66.6997,39.1881 68.5,41C 67.2161,41.6838 66.0495,41.5171 65,40.5C 64.3923,38.8455 63.8923,37.1789 63.5,35.5 Z"/></g>
<g><path style="opacity:1" fill="#858b8c" d="M 26.5,38.5 C 26.0405,41.8774 25.3739,45.2107 24.5,48.5C 24.1667,48.5 23.8333,48.5 23.5,48.5C 23.7234,44.8379 24.7234,41.5046 26.5,38.5 Z"/></g>
<g><path style="opacity:1" fill="#d7cec1" d="M 75.5,41.5 C 76.2899,42.7942 77.2899,43.9609 78.5,45C 76.3849,45.5362 75.0516,44.7029 74.5,42.5C 74.5,41.8333 74.8333,41.5 75.5,41.5 Z"/></g>
<g><path style="opacity:1" fill="#e3d3c0" d="M 67.5,42.5 C 69.9124,42.244 71.5791,43.244 72.5,45.5C 70.0484,48.2844 68.0484,47.951 66.5,44.5C 66.8627,43.8165 67.1961,43.1499 67.5,42.5 Z"/></g>
<g><path style="opacity:1" fill="#ebdac6" d="M 48.5,41.5 C 48.8333,43.5 49.1667,45.5 49.5,47.5C 49.44,48.0431 49.1067,48.3764 48.5,48.5C 47.2031,46.0268 47.2031,43.6934 48.5,41.5 Z"/></g>
<g><path style="opacity:1" fill="#7b7064" d="M 48.5,41.5 C 47.2031,43.6934 47.2031,46.0268 48.5,48.5C 49.1067,48.3764 49.44,48.0431 49.5,47.5C 50.3382,47.8417 50.6716,48.5084 50.5,49.5C 49.5,49.5 48.5,49.5 47.5,49.5C 47.5,50.8333 47.5,52.1667 47.5,53.5C 46.1876,48.9848 46.1876,44.3181 47.5,39.5C 48.2975,39.9569 48.6309,40.6236 48.5,41.5 Z"/></g>
<g><path style="opacity:1" fill="#bab4a9" d="M 68.5,51.5 C 68.44,52.0431 68.1067,52.3764 67.5,52.5C 66.7492,51.624 66.2492,50.624 66,49.5C 65.0053,50.0659 64.172,50.7326 63.5,51.5C 62.6091,50.7387 61.9424,49.7387 61.5,48.5C 62.5,48.5 63.5,48.5 64.5,48.5C 62.7515,46.4172 61.9182,44.0838 62,41.5C 64.8894,44.5184 67.056,47.8517 68.5,51.5 Z"/></g>
<g><path style="opacity:1" fill="#7a7268" d="M 58.5,51.5 C 57.0241,51.8885 55.6908,51.8885 54.5,51.5C 52.9014,50.2015 52.4014,48.5348 53,46.5C 54.7684,48.0639 56.6017,49.7306 58.5,51.5 Z"/></g>
<g><path style="opacity:1" fill="#957d68" d="M 44.5,51.5 C 43.8333,51.8333 43.1667,52.1667 42.5,52.5C 42.3814,44.0358 43.0481,43.7025 44.5,51.5 Z"/></g>
<g><path style="opacity:1" fill="#505252" d="M 26.5,50.5 C 25.8333,50.5 25.5,50.8333 25.5,51.5C 24.5386,53.2646 24.2053,55.2646 24.5,57.5C 23.5269,55.0521 23.1936,52.3854 23.5,49.5C 23.5,49.1667 23.5,48.8333 23.5,48.5C 23.8333,48.5 24.1667,48.5 24.5,48.5C 25.6966,47.739 26.5299,46.0723 27,43.5C 27.7958,46.0385 27.6291,48.3718 26.5,50.5 Z"/></g>
<g><path style="opacity:1" fill="#d3c3b0" d="M 44.5,51.5 C 45.0283,52.7206 45.695,53.8873 46.5,55C 43.691,57.0564 42.3577,56.2231 42.5,52.5C 43.1667,52.1667 43.8333,51.8333 44.5,51.5 Z"/></g>
<g><path style="opacity:1" fill="#f7d8c4" d="M 82.5,60.5 C 82.67,61.8221 82.3366,62.9887 81.5,64C 78.4423,65.0146 75.4423,66.1813 72.5,67.5C 71.8076,68.0253 71.3076,68.6919 71,69.5C 68.7362,67.0174 66.4028,67.0174 64,69.5C 62.7387,69.2409 61.7387,68.5742 61,67.5C 59.6338,71.3625 57.1338,74.0292 53.5,75.5C 53.5,76.5 53.5,77.5 53.5,78.5C 52.609,77.8902 51.609,77.5569 50.5,77.5C 49.3995,76.3951 48.7329,75.0618 48.5,73.5C 48.4894,71.9826 47.8228,70.8159 46.5,70C 47.566,68.841 47.2327,68.0076 45.5,67.5C 45.5,67.1667 45.5,66.8333 45.5,66.5C 47.8333,65.8333 50.1667,65.1667 52.5,64.5C 53.9063,64.0269 54.573,63.0269 54.5,61.5C 55.9953,61.5852 56.9953,60.9185 57.5,59.5C 56.1667,57.8333 56.1667,56.1667 57.5,54.5C 60.0272,53.7864 62.5272,53.1197 65,52.5C 67.9746,56.1441 71.808,57.9774 76.5,58C 72.5694,58.403 71.5694,60.2363 73.5,63.5C 75.9363,63.683 78.103,63.0163 80,61.5C 80.7112,59.6332 80.2112,58.1332 78.5,57C 79.3617,54.2656 80.195,54.0989 81,56.5C 81.3333,55.8333 81.6667,55.1667 82,54.5C 82.4955,56.4727 82.6621,58.4727 82.5,60.5 Z"/></g>
<g><path style="opacity:1" fill="#a0a6aa" d="M 25.5,51.5 C 25.5,52.1667 25.8333,52.5 26.5,52.5C 26.5,55.1667 26.5,57.8333 26.5,60.5C 26.5,60.8333 26.5,61.1667 26.5,61.5C 25.7784,61.9175 25.2784,62.5842 25,63.5C 24.5045,61.5273 24.3379,59.5273 24.5,57.5C 24.2053,55.2646 24.5386,53.2646 25.5,51.5 Z"/></g>
<g><path style="opacity:1" fill="#8c8a8a" d="M 52.5,58.5 C 51.5084,58.6716 50.8417,58.3382 50.5,57.5C 51.6226,56.2426 52.2893,56.5759 52.5,58.5 Z"/></g>
<g><path style="opacity:1" fill="#e3cbbc" d="M 80.5,44.5 C 82.9474,49.4606 83.9474,54.7939 83.5,60.5C 83.1667,60.5 82.8333,60.5 82.5,60.5C 82.6621,58.4727 82.4955,56.4727 82,54.5C 81.6667,55.1667 81.3333,55.8333 81,56.5C 80.195,54.0989 79.3617,54.2656 78.5,57C 80.2112,58.1332 80.7112,59.6332 80,61.5C 78.103,63.0163 75.9363,63.683 73.5,63.5C 71.5694,60.2363 72.5694,58.403 76.5,58C 71.808,57.9774 67.9746,56.1441 65,52.5C 62.5272,53.1197 60.0272,53.7864 57.5,54.5C 56.1667,56.1667 56.1667,57.8333 57.5,59.5C 56.9953,60.9185 55.9953,61.5852 54.5,61.5C 54.7373,60.209 54.404,59.209 53.5,58.5C 53.67,57.1779 53.3366,56.0113 52.5,55C 50.6183,54.8019 48.9516,54.3019 47.5,53.5C 47.5,52.1667 47.5,50.8333 47.5,49.5C 48.5,49.5 49.5,49.5 50.5,49.5C 51.265,50.6602 52.265,51.6602 53.5,52.5C 54.1067,52.3764 54.44,52.0431 54.5,51.5C 55.6908,51.8885 57.0241,51.8885 58.5,51.5C 60.2837,52.7199 61.9504,52.7199 63.5,51.5C 64.172,50.7326 65.0053,50.0659 66,49.5C 66.2492,50.624 66.7492,51.624 67.5,52.5C 68.1067,52.3764 68.44,52.0431 68.5,51.5C 68.4346,51.0618 68.6012,50.7284 69,50.5C 69.6082,52.0664 70.4415,53.3998 71.5,54.5C 73.2079,54.6227 75.0412,54.9561 77,55.5C 77.4643,54.9056 77.631,54.2389 77.5,53.5C 78.29,52.3915 78.79,51.0581 79,49.5C 79.3333,50.5 79.6667,51.5 80,52.5C 81.8289,50.2701 81.6622,48.1035 79.5,46C 79.5699,45.2352 79.9033,44.7352 80.5,44.5 Z"/></g>
<g><path style="opacity:1" fill="#a36063" d="M 77.5,53.5 C 77.631,54.2389 77.4643,54.9056 77,55.5C 75.0412,54.9561 73.2079,54.6227 71.5,54.5C 71.2619,50.9007 72.2619,50.5673 74.5,53.5C 75.5343,50.8753 76.5343,50.8753 77.5,53.5 Z"/></g>
<g><path style="opacity:1" fill="#cab8a6" d="M 89.5,45.5 C 90.7899,46.0577 91.6232,47.0577 92,48.5C 92.4966,50.8098 92.6633,53.1432 92.5,55.5C 92.2503,57.674 91.2503,59.3406 89.5,60.5C 89.5,55.5 89.5,50.5 89.5,45.5 Z"/></g>
<g><path style="opacity:1" fill="#696c6e" d="M 99.5,44.5 C 103.019,51.3938 105.353,58.7271 106.5,66.5C 105.541,70.3615 104.541,70.3615 103.5,66.5C 104.622,64.7116 104.789,62.7116 104,60.5C 102.628,56.1865 100.795,52.1865 98.5,48.5C 97.9569,48.44 97.6236,48.1067 97.5,47.5C 97.8457,46.3044 98.3457,46.3044 99,47.5C 99.4828,46.552 99.6495,45.552 99.5,44.5 Z"/></g>
<g><path style="opacity:1" fill="#cac3ab" d="M 40.5,57.5 C 42.0847,58.0024 42.5847,59.0024 42,60.5C 40.9614,59.7562 40.4614,58.7562 40.5,57.5 Z"/></g>
<g><path style="opacity:1" fill="#bec5cb" d="M 98.5,48.5 C 100.795,52.1865 102.628,56.1865 104,60.5C 104.789,62.7116 104.622,64.7116 103.5,66.5C 101.026,60.7411 99.359,54.7411 98.5,48.5 Z"/></g>
<g><path style="opacity:1" fill="#592e2f" d="M 50.5,57.5 C 50.8417,58.3382 51.5084,58.6716 52.5,58.5C 52.8333,58.5 53.1667,58.5 53.5,58.5C 54.404,59.209 54.7373,60.209 54.5,61.5C 52.3792,61.3253 50.3792,61.6586 48.5,62.5C 48.5,62.1667 48.5,61.8333 48.5,61.5C 48.2291,59.6203 48.8958,58.287 50.5,57.5 Z"/></g>
<g><path style="opacity:1" fill="#b08e8a" d="M 54.5,61.5 C 54.573,63.0269 53.9063,64.0269 52.5,64.5C 50.6203,64.7709 49.287,64.1042 48.5,62.5C 50.3792,61.6586 52.3792,61.3253 54.5,61.5 Z"/></g>
<g><path style="opacity:1" fill="#686e6e" d="M 23.5,49.5 C 23.1936,52.3854 23.5269,55.0521 24.5,57.5C 24.3379,59.5273 24.5045,61.5273 25,63.5C 25.2784,62.5842 25.7784,61.9175 26.5,61.5C 26.4828,63.5648 26.1495,65.5648 25.5,67.5C 22.9257,64.9677 21.5924,61.8011 21.5,58C 21.7413,54.938 22.4079,52.1046 23.5,49.5 Z"/></g>
<g><path style="opacity:1" fill="#9f8066" d="M 39.5,67.5 C 37.6203,67.7709 36.287,67.1042 35.5,65.5C 34.6765,63.5454 34.5099,61.5454 35,59.5C 35.7384,62.6485 37.2384,65.3152 39.5,67.5 Z"/></g>
<g><path style="opacity:1" fill="#d5c9bc" d="M 48.5,61.5 C 48.5,61.8333 48.5,62.1667 48.5,62.5C 49.287,64.1042 50.6203,64.7709 52.5,64.5C 50.1667,65.1667 47.8333,65.8333 45.5,66.5C 43.0863,65.5944 42.253,63.9278 43,61.5C 43.3333,61.8333 43.6667,62.1667 44,62.5C 44.8958,57.714 46.3958,57.3807 48.5,61.5 Z"/></g>
<g><path style="opacity:1" fill="#131312" d="M 92.5,55.5 C 94.429,61.9155 94.929,68.5822 94,75.5C 93.7216,76.4158 93.2216,77.0825 92.5,77.5C 91.8333,77.1667 91.1667,76.8333 90.5,76.5C 89.5509,71.2599 89.2175,65.9265 89.5,60.5C 91.2503,59.3406 92.2503,57.674 92.5,55.5 Z"/></g>
<g><path style="opacity:1" fill="#121314" d="M 103.5,73.5 C 100.876,75.1011 98.2096,76.7678 95.5,78.5C 96.1773,73.1991 96.6773,67.8657 97,62.5C 98.5997,66.5772 100.766,70.2439 103.5,73.5 Z"/></g>
<g><path style="opacity:1" fill="#f6dec9" d="M 82.5,60.5 C 82.8333,60.5 83.1667,60.5 83.5,60.5C 83.5,63.8333 83.5,67.1667 83.5,70.5C 80.1082,75.4005 76.1082,79.9005 71.5,84C 67.9277,84.8471 64.5943,84.3471 61.5,82.5C 59.2972,82.3964 57.2972,81.7298 55.5,80.5C 54.8333,79.8333 54.1667,79.1667 53.5,78.5C 53.5,77.5 53.5,76.5 53.5,75.5C 57.1338,74.0292 59.6338,71.3625 61,67.5C 61.7387,68.5742 62.7387,69.2409 64,69.5C 66.4028,67.0174 68.7362,67.0174 71,69.5C 71.3076,68.6919 71.8076,68.0253 72.5,67.5C 75.4423,66.1813 78.4423,65.0146 81.5,64C 82.3366,62.9887 82.67,61.8221 82.5,60.5 Z"/></g>
<g><path style="opacity:1" fill="#1a1a18" d="M 32.5,63.5 C 32.3359,66.1873 32.5026,68.854 33,71.5C 35.5402,73.7047 37.7068,76.2047 39.5,79C 37.2504,81.4222 34.9171,83.5889 32.5,85.5C 32.4456,83.368 31.4456,82.0347 29.5,81.5C 29.6662,75.1579 29.4995,68.8246 29,62.5C 27.6211,67.036 27.1211,71.7027 27.5,76.5C 25.631,74.3647 24.9644,71.6981 25.5,68.5C 25.5,68.1667 25.5,67.8333 25.5,67.5C 26.1495,65.5648 26.4828,63.5648 26.5,61.5C 26.5,61.1667 26.5,60.8333 26.5,60.5C 27.2679,59.7375 27.7679,58.7375 28,57.5C 28.9138,58.6537 29.7471,58.487 30.5,57C 29.4086,54.9361 29.2419,52.7695 30,50.5C 30.4758,54.5763 31.6425,58.4096 33.5,62C 32.944,62.3826 32.6107,62.8826 32.5,63.5 Z"/></g>
<g><path style="opacity:1" fill="#8b8377" d="M 45.5,67.5 C 47.2327,68.0076 47.566,68.841 46.5,70C 47.8228,70.8159 48.4894,71.9826 48.5,73.5C 47.1667,72.8333 46.1667,71.8333 45.5,70.5C 45.5,69.5 45.5,68.5 45.5,67.5 Z"/></g>
<g><path style="opacity:1" fill="#696d6e" d="M 29.5,81.5 C 27.7868,80.3646 27.1201,78.698 27.5,76.5C 27.1211,71.7027 27.6211,67.036 29,62.5C 29.4995,68.8246 29.6662,75.1579 29.5,81.5 Z"/></g>
<g><path style="opacity:1" fill="#2d2f3e" d="M 109.5,73.5 C 111.861,73.6741 114.194,74.0074 116.5,74.5C 109.494,80.8132 103.661,88.1466 99,96.5C 92.6346,103.579 85.4679,109.579 77.5,114.5C 78.4624,110.605 79.7957,106.939 81.5,103.5C 81.5173,105.028 82.184,105.528 83.5,105C 87.6363,99.1612 89.9697,92.6612 90.5,85.5C 90.7959,83.597 91.4625,81.9303 92.5,80.5C 93.7095,80.0679 94.7095,79.4013 95.5,78.5C 98.2096,76.7678 100.876,75.1011 103.5,73.5C 105.668,73.1661 107.668,73.1661 109.5,73.5 Z"/></g>
<g><path style="opacity:1" fill="#765f4f" d="M 83.5,78.5 C 83.8333,79.1667 84.1667,79.8333 84.5,80.5C 83.5,81.8333 82.5,83.1667 81.5,84.5C 81.595,82.2143 82.2616,80.2143 83.5,78.5 Z"/></g>
<g><path style="opacity:1" fill="#494b4d" d="M 25.5,68.5 C 24.9644,71.6981 25.631,74.3647 27.5,76.5C 27.1201,78.698 27.7868,80.3646 29.5,81.5C 31.4456,82.0347 32.4456,83.368 32.5,85.5C 32.6716,86.4916 32.3382,87.1583 31.5,87.5C 28.9724,85.9273 26.9724,83.9273 25.5,81.5C 24.3376,77.0202 24.3376,72.6869 25.5,68.5 Z"/></g>
<g><path style="opacity:1" fill="#818485" d="M 122.5,76.5 C 124.379,77.8968 126.046,79.5635 127.5,81.5C 127.5,82.1667 127.5,82.8333 127.5,83.5C 125.833,82.5 124.5,81.1667 123.5,79.5C 123.443,78.391 123.11,77.391 122.5,76.5 Z"/></g>
<g><path style="opacity:1" fill="#d9a98b" d="M 50.5,77.5 C 51.609,77.5569 52.609,77.8902 53.5,78.5C 54.1667,79.1667 54.8333,79.8333 55.5,80.5C 55.1847,84.8004 52.8514,86.467 48.5,85.5C 49.7496,82.994 50.4162,80.3274 50.5,77.5 Z"/></g>
<g><path style="opacity:1" fill="#131418" d="M 55.5,80.5 C 57.2972,81.7298 59.2972,82.3964 61.5,82.5C 61.1561,87.1219 61.8227,91.4552 63.5,95.5C 63.8333,97.5 64.1667,99.5 64.5,101.5C 60.6575,103.002 56.6575,103.668 52.5,103.5C 51.0256,102.564 50.0256,101.23 49.5,99.5C 48.564,95.2648 48.2307,90.9315 48.5,86.5C 48.5,86.1667 48.5,85.8333 48.5,85.5C 52.8514,86.467 55.1847,84.8004 55.5,80.5 Z"/></g>
<g><path style="opacity:1" fill="#dc9b7a" d="M 83.5,70.5 C 83.5,73.1667 83.5,75.8333 83.5,78.5C 82.2616,80.2143 81.595,82.2143 81.5,84.5C 80.3706,87.9176 78.3706,90.751 75.5,93C 71.3199,94.4191 67.3199,95.2524 63.5,95.5C 61.8227,91.4552 61.1561,87.1219 61.5,82.5C 64.5943,84.3471 67.9277,84.8471 71.5,84C 76.1082,79.9005 80.1082,75.4005 83.5,70.5 Z"/></g>
<g><path style="opacity:1" fill="#a7876d" d="M 90.5,76.5 C 91.1667,76.8333 91.8333,77.1667 92.5,77.5C 92.5,78.5 92.5,79.5 92.5,80.5C 91.4625,81.9303 90.7959,83.597 90.5,85.5C 89.1667,82.5 89.1667,79.5 90.5,76.5 Z"/></g>
<g><path style="opacity:1" fill="#e1dfdd" d="M 28.5,90.5 C 25.1517,94.8471 21.1517,98.5137 16.5,101.5C 15.4324,100.566 14.099,100.232 12.5,100.5C 12.5106,98.9826 13.1772,97.8159 14.5,97C 16.2182,96.654 17.8849,96.154 19.5,95.5C 21.3714,92.2584 23.3714,89.0917 25.5,86C 27.7734,86.3166 28.7734,87.8166 28.5,90.5 Z"/></g>
<g><path style="opacity:1" fill="#f6ddc7" d="M 32.5,63.5 C 33.5,64.1667 34.5,64.8333 35.5,65.5C 36.287,67.1042 37.6203,67.7709 39.5,67.5C 41.5,68.5 43.5,69.5 45.5,70.5C 46.1667,71.8333 47.1667,72.8333 48.5,73.5C 48.7329,75.0618 49.3995,76.3951 50.5,77.5C 50.4162,80.3274 49.7496,82.994 48.5,85.5C 48.5,85.8333 48.5,86.1667 48.5,86.5C 46.9013,88.6038 45.068,90.6038 43,92.5C 43.1953,94.1261 43.1953,95.7928 43,97.5C 41.6507,94.9296 40.484,94.9296 39.5,97.5C 37.4525,99.5496 35.7859,101.883 34.5,104.5C 34.2624,106.404 33.2624,107.738 31.5,108.5C 30.5,108.833 29.8333,109.5 29.5,110.5C 29.1667,111.167 28.8333,111.833 28.5,112.5C 27.0937,112.973 26.427,113.973 26.5,115.5C 26.1667,116.167 25.8333,116.833 25.5,117.5C 22.4838,120.52 19.8171,123.854 17.5,127.5C 15.1667,127.5 12.8333,127.5 10.5,127.5C 5.85837,124.858 2.1917,121.192 -0.5,116.5C -0.5,114.5 -0.5,112.5 -0.5,110.5C 0.166667,111.167 0.833333,111.833 1.5,112.5C 0.697084,113.423 0.530417,114.423 1,115.5C 2.69406,112.642 4.86073,110.309 7.5,108.5C 8.79502,107.512 10.1283,106.512 11.5,105.5C 12.0431,105.44 12.3764,105.107 12.5,104.5C 11.7573,103.818 11.0906,103.151 10.5,102.5C 12.6208,102.675 14.6208,102.341 16.5,101.5C 21.1517,98.5137 25.1517,94.8471 28.5,90.5C 29.8333,89.8333 30.8333,88.8333 31.5,87.5C 32.3382,87.1583 32.6716,86.4916 32.5,85.5C 34.9171,83.5889 37.2504,81.4222 39.5,79C 37.7068,76.2047 35.5402,73.7047 33,71.5C 32.5026,68.854 32.3359,66.1873 32.5,63.5 Z"/></g>
<g><path style="opacity:1" fill="#20201f" d="M 48.5,86.5 C 48.2307,90.9315 48.564,95.2648 49.5,99.5C 48.596,100.209 48.2627,101.209 48.5,102.5C 47.506,103.999 47.506,105.666 48.5,107.5C 47.0532,111.513 47.3866,115.513 49.5,119.5C 48.2192,119.984 47.2192,119.317 46.5,117.5C 44.5139,112.745 43.3473,107.745 43,102.5C 41.8236,100.804 40.657,99.1376 39.5,97.5C 40.484,94.9296 41.6507,94.9296 43,97.5C 43.1953,95.7928 43.1953,94.1261 43,92.5C 45.068,90.6038 46.9013,88.6038 48.5,86.5 Z"/></g>
<g><path style="opacity:1" fill="#2c313e" d="M 122.5,76.5 C 123.11,77.391 123.443,78.391 123.5,79.5C 121.863,78.7822 120.197,78.6155 118.5,79C 111.795,86.9256 105.462,95.0923 99.5,103.5C 93.0975,109.244 86.4308,114.577 79.5,119.5C 77.8212,119.715 76.8212,119.048 76.5,117.5C 84.6083,112.35 92.1083,106.35 99,99.5C 103.833,92.6667 108.667,85.8333 113.5,79C 116.107,76.8951 119.107,76.0617 122.5,76.5 Z"/></g>
<g><path style="opacity:1" fill="#9c9d9f" d="M 25.5,81.5 C 26.9724,83.9273 28.9724,85.9273 31.5,87.5C 30.8333,88.8333 29.8333,89.8333 28.5,90.5C 28.7734,87.8166 27.7734,86.3166 25.5,86C 23.3714,89.0917 21.3714,92.2584 19.5,95.5C 17.8849,96.154 16.2182,96.654 14.5,97C 13.1772,97.8159 12.5106,98.9826 12.5,100.5C 11.8333,100.833 11.1667,101.167 10.5,101.5C 11.5567,96.9432 14.3901,94.2765 19,93.5C 21.0676,89.3129 23.2343,85.3129 25.5,81.5 Z"/></g>
<g><path style="opacity:1" fill="#d0d0d2" d="M 116.5,74.5 C 118.898,74.2594 120.898,74.9261 122.5,76.5C 119.107,76.0617 116.107,76.8951 113.5,79C 108.667,85.8333 103.833,92.6667 99,99.5C 92.1083,106.35 84.6083,112.35 76.5,117.5C 76.2627,116.209 76.596,115.209 77.5,114.5C 85.4679,109.579 92.6346,103.579 99,96.5C 103.661,88.1466 109.494,80.8132 116.5,74.5 Z"/></g>
<g><path style="opacity:1" fill="#edd2bb" d="M 84.5,80.5 C 84.7857,87.396 83.7857,94.0626 81.5,100.5C 76.1301,100.392 70.7968,100.725 65.5,101.5C 65.1667,101.5 64.8333,101.5 64.5,101.5C 64.1667,99.5 63.8333,97.5 63.5,95.5C 67.3199,95.2524 71.3199,94.4191 75.5,93C 78.3706,90.751 80.3706,87.9176 81.5,84.5C 82.5,83.1667 83.5,81.8333 84.5,80.5 Z"/></g>
<g><path style="opacity:1" fill="#ebebec" d="M 123.5,79.5 C 124.5,81.1667 125.833,82.5 127.5,83.5C 127.5,91.1667 127.5,98.8333 127.5,106.5C 125.025,108.77 123.025,111.437 121.5,114.5C 121.637,111.962 121.637,109.295 121.5,106.5C 117.372,108.398 113.372,110.565 109.5,113C 108.594,114.699 108.261,116.533 108.5,118.5C 103.959,118.843 99.6256,118.843 95.5,118.5C 97.9214,113.816 99.2547,108.816 99.5,103.5C 105.462,95.0923 111.795,86.9256 118.5,79C 120.197,78.6155 121.863,78.7822 123.5,79.5 Z"/></g>
<g><path style="opacity:1" fill="#c0bebe" d="M 114.5,87.5 C 115.043,87.56 115.376,87.8933 115.5,88.5C 113.351,95.0965 111.518,101.763 110,108.5C 110.387,101.284 111.887,94.2839 114.5,87.5 Z"/></g>
<g><path style="opacity:1" fill="#eceded" d="M 81.5,100.5 C 81.5,101.5 81.5,102.5 81.5,103.5C 79.7957,106.939 78.4624,110.605 77.5,114.5C 76.596,115.209 76.2627,116.209 76.5,117.5C 75.609,118.11 74.609,118.443 73.5,118.5C 73.5,117.833 73.1667,117.5 72.5,117.5C 72.6716,116.508 72.3382,115.842 71.5,115.5C 69.5,110.833 67.5,106.167 65.5,101.5C 70.7968,100.725 76.1301,100.392 81.5,100.5 Z"/></g>
<g><path style="opacity:1" fill="#31333e" d="M 12.5,100.5 C 14.099,100.232 15.4324,100.566 16.5,101.5C 14.6208,102.341 12.6208,102.675 10.5,102.5C 10.5,102.167 10.5,101.833 10.5,101.5C 11.1667,101.167 11.8333,100.833 12.5,100.5 Z"/></g>
<g><path style="opacity:1" fill="#8a8c8e" d="M 10.5,101.5 C 10.5,101.833 10.5,102.167 10.5,102.5C 11.0906,103.151 11.7573,103.818 12.5,104.5C 12.3764,105.107 12.0431,105.44 11.5,105.5C 9.95041,104.28 8.28374,104.28 6.5,105.5C 7.16667,103.5 8.5,102.167 10.5,101.5 Z"/></g>
<g><path style="opacity:1" fill="#b5b5c0" d="M 39.5,97.5 C 40.657,99.1376 41.8236,100.804 43,102.5C 43.3473,107.745 44.5139,112.745 46.5,117.5C 45.9569,117.56 45.6236,117.893 45.5,118.5C 46.3578,121.62 47.3578,124.62 48.5,127.5C 47.1667,127.5 45.8333,127.5 44.5,127.5C 43.3335,120.505 42.1668,113.505 41,106.5C 40.5045,108.473 40.3379,110.473 40.5,112.5C 38.9235,109.648 37.4235,106.648 36,103.5C 35.6174,104.056 35.1174,104.389 34.5,104.5C 35.7859,101.883 37.4525,99.5496 39.5,97.5 Z"/></g>
<g><path style="opacity:1" fill="#eeeeef" d="M 40.5,112.5 C 40.5,112.833 40.5,113.167 40.5,113.5C 40.5654,113.938 40.3988,114.272 40,114.5C 37.5794,113.039 35.0794,111.706 32.5,110.5C 31.7025,110.043 31.3691,109.376 31.5,108.5C 33.2624,107.738 34.2624,106.404 34.5,104.5C 35.1174,104.389 35.6174,104.056 36,103.5C 37.4235,106.648 38.9235,109.648 40.5,112.5 Z"/></g>
<g><path style="opacity:1" fill="#313443" d="M 64.5,101.5 C 64.8333,101.5 65.1667,101.5 65.5,101.5C 67.5,106.167 69.5,110.833 71.5,115.5C 64.3141,112.746 57.9808,108.746 52.5,103.5C 56.6575,103.668 60.6575,103.002 64.5,101.5 Z"/></g>
<g><path style="opacity:1" fill="#1f1e21" d="M 11.5,105.5 C 10.1283,106.512 8.79502,107.512 7.5,108.5C 6.59603,107.791 6.26269,106.791 6.5,105.5C 8.28374,104.28 9.95041,104.28 11.5,105.5 Z"/></g>
<g><path style="opacity:1" fill="#c9cacd" d="M 49.5,99.5 C 50.0256,101.23 51.0256,102.564 52.5,103.5C 57.9808,108.746 64.3141,112.746 71.5,115.5C 72.3382,115.842 72.6716,116.508 72.5,117.5C 62.8955,114.863 54.8955,109.863 48.5,102.5C 48.2627,101.209 48.596,100.209 49.5,99.5 Z"/></g>
<g><path style="opacity:1" fill="#b7b5bf" d="M 121.5,114.5 C 120.494,115.396 120.494,116.062 121.5,116.5C 117.409,117.895 113.076,118.562 108.5,118.5C 108.261,116.533 108.594,114.699 109.5,113C 113.372,110.565 117.372,108.398 121.5,106.5C 121.637,109.295 121.637,111.962 121.5,114.5 Z"/></g>
<g><path style="opacity:1" fill="#282a38" d="M 127.5,106.5 C 127.5,108.833 127.5,111.167 127.5,113.5C 127.167,113.5 126.833,113.5 126.5,113.5C 125.33,115.279 123.664,116.279 121.5,116.5C 120.494,116.062 120.494,115.396 121.5,114.5C 123.025,111.437 125.025,108.77 127.5,106.5 Z"/></g>
<g><path style="opacity:1" fill="#999a96" d="M 6.5,105.5 C 6.26269,106.791 6.59603,107.791 7.5,108.5C 4.86073,110.309 2.69406,112.642 1,115.5C 0.530417,114.423 0.697084,113.423 1.5,112.5C 3.61647,110.4 5.28314,108.067 6.5,105.5 Z"/></g>
<g><path style="opacity:1" fill="#2c2f3c" d="M 48.5,102.5 C 54.8955,109.863 62.8955,114.863 72.5,117.5C 73.1667,117.5 73.5,117.833 73.5,118.5C 70.8333,118.5 68.1667,118.5 65.5,118.5C 59.8827,116.024 54.5494,113.024 49.5,109.5C 49.1667,108.833 48.8333,108.167 48.5,107.5C 47.506,105.666 47.506,103.999 48.5,102.5 Z"/></g>
<g><path style="opacity:1" fill="#b7b8c2" d="M 31.5,108.5 C 31.3691,109.376 31.7025,110.043 32.5,110.5C 35.0794,111.706 37.5794,113.039 40,114.5C 40.3988,114.272 40.5654,113.938 40.5,113.5C 42.334,118.296 41.0007,122.13 36.5,125C 38.3867,125.163 39.8867,124.329 41,122.5C 41.4935,124.134 41.6602,125.801 41.5,127.5C 39.1667,127.5 36.8333,127.5 34.5,127.5C 36.2604,120.785 34.5937,115.118 29.5,110.5C 29.8333,109.5 30.5,108.833 31.5,108.5 Z"/></g>
<g><path style="opacity:1" fill="#dddcdd" d="M 48.5,107.5 C 48.8333,108.167 49.1667,108.833 49.5,109.5C 50.2677,113.699 51.601,117.699 53.5,121.5C 52.5849,123.754 51.2516,125.754 49.5,127.5C 49.1667,127.5 48.8333,127.5 48.5,127.5C 47.3578,124.62 46.3578,121.62 45.5,118.5C 45.6236,117.893 45.9569,117.56 46.5,117.5C 47.2192,119.317 48.2192,119.984 49.5,119.5C 47.3866,115.513 47.0532,111.513 48.5,107.5 Z"/></g>
<g><path style="opacity:1" fill="#b9383b" d="M 99.5,103.5 C 99.2547,108.816 97.9214,113.816 95.5,118.5C 90.3843,120.795 85.051,121.129 79.5,119.5C 86.4308,114.577 93.0975,109.244 99.5,103.5 Z"/></g>
<g><path style="opacity:1" fill="#a92d30" d="M 49.5,109.5 C 54.5494,113.024 59.8827,116.024 65.5,118.5C 62.1179,119.898 58.6179,121.231 55,122.5C 54.6174,121.944 54.1174,121.611 53.5,121.5C 51.601,117.699 50.2677,113.699 49.5,109.5 Z"/></g>
<g><path style="opacity:1" fill="#7b1218" d="M 86.5,115.5 C 90.2896,115.008 90.9563,115.841 88.5,118C 86.3046,119.373 83.9712,119.706 81.5,119C 83.5844,118.303 85.2511,117.136 86.5,115.5 Z"/></g>
<g><path style="opacity:1" fill="#a5a5ab" d="M 28.5,112.5 C 31.4466,117.016 32.7799,122.016 32.5,127.5C 31.8333,127.5 31.1667,127.5 30.5,127.5C 30.6633,125.143 30.4966,122.81 30,120.5C 29.7767,118.119 28.61,116.453 26.5,115.5C 26.427,113.973 27.0937,112.973 28.5,112.5 Z"/></g>
<g><path style="opacity:1" fill="#f0d9c4" d="M 126.5,113.5 C 126.5,114.167 126.833,114.5 127.5,114.5C 127.5,115.167 127.5,115.833 127.5,116.5C 126.744,119.584 124.744,121.251 121.5,121.5C 121.251,124.744 119.584,126.744 116.5,127.5C 94.1667,127.5 71.8333,127.5 49.5,127.5C 51.2516,125.754 52.5849,123.754 53.5,121.5C 54.1174,121.611 54.6174,121.944 55,122.5C 58.6179,121.231 62.1179,119.898 65.5,118.5C 68.1667,118.5 70.8333,118.5 73.5,118.5C 74.609,118.443 75.609,118.11 76.5,117.5C 76.8212,119.048 77.8212,119.715 79.5,119.5C 85.051,121.129 90.3843,120.795 95.5,118.5C 99.6256,118.843 103.959,118.843 108.5,118.5C 113.076,118.562 117.409,117.895 121.5,116.5C 123.664,116.279 125.33,115.279 126.5,113.5 Z"/></g>
<g><path style="opacity:1" fill="#d69c7c" d="M 25.5,117.5 C 26.2565,119.267 26.9231,121.1 27.5,123C 26.3955,124.715 25.0622,126.215 23.5,127.5C 21.5,127.5 19.5,127.5 17.5,127.5C 19.8171,123.854 22.4838,120.52 25.5,117.5 Z"/></g>
<g><path style="opacity:1" fill="#1d1e25" d="M 29.5,110.5 C 34.5937,115.118 36.2604,120.785 34.5,127.5C 33.8333,127.5 33.1667,127.5 32.5,127.5C 32.7799,122.016 31.4466,117.016 28.5,112.5C 28.8333,111.833 29.1667,111.167 29.5,110.5 Z"/></g>
<g><path style="opacity:1" fill="#92939a" d="M 44.5,127.5 C 43.5,127.5 42.5,127.5 41.5,127.5C 41.6602,125.801 41.4935,124.134 41,122.5C 39.8867,124.329 38.3867,125.163 36.5,125C 41.0007,122.13 42.334,118.296 40.5,113.5C 40.5,113.167 40.5,112.833 40.5,112.5C 40.3379,110.473 40.5045,108.473 41,106.5C 42.1668,113.505 43.3335,120.505 44.5,127.5 Z"/></g>
<g><path style="opacity:1" fill="#181b21" d="M 26.5,115.5 C 28.61,116.453 29.7767,118.119 30,120.5C 30.4966,122.81 30.6633,125.143 30.5,127.5C 28.1667,127.5 25.8333,127.5 23.5,127.5C 25.0622,126.215 26.3955,124.715 27.5,123C 26.9231,121.1 26.2565,119.267 25.5,117.5C 25.8333,116.833 26.1667,116.167 26.5,115.5 Z"/></g>
</svg>
